<svg id="Layer_1" data-name="Layer 1" xmlns="http://www.w3.org/2000/svg" viewBox="0 0 500 500"><defs><style>.cls-1{fill:#727272;}</style></defs><path class="cls-1" d="M250,500C112.15,500,0,387.85,0,250S112.15,0,250,0,500,112.15,500,250,387.85,500,250,500Zm0-473.83C126.58,26.17,26.17,126.58,26.17,250S126.58,473.83,250,473.83,473.83,373.42,473.83,250,373.42,26.17,250,26.17Z"/><path class="cls-1" d="M175,210.81h37v29H136.64V117.49H175Z"/><path class="cls-1" d="M272.38,232.93a60.82,60.82,0,0,1-22.9-22.47A62.39,62.39,0,0,1,241,178.15a62.45,62.45,0,0,1,8.47-32.32,60.23,60.23,0,0,1,22.9-22.38,66.45,66.45,0,0,1,63.33,0,59.78,59.78,0,0,1,22.73,22.38,63,63,0,0,1,8.38,32.32,62.91,62.91,0,0,1-8.38,32.31,60.19,60.19,0,0,1-22.82,22.47,65.63,65.63,0,0,1-63.24,0Zm49.34-35q6.21-7.34,6.22-19.78,0-12.61-6.22-20t-17.63-7.35q-11.58,0-17.8,7.35t-6.22,20q0,12.43,6.22,19.78t17.8,7.35Q315.49,205.28,321.72,197.93Z"/><path class="cls-1" d="M197.73,302.84a14.81,14.81,0,0,0-6.4-5.61,23,23,0,0,0-10-2q-11.06,0-17.11,7.17t-6,19.62q0,14.34,6.74,21.42t20.74,7.09a25.6,25.6,0,0,0,21.43-10.72H176.47V312.69h62.38v38.37a73.58,73.58,0,0,1-21.94,23.41q-14,9.76-35.43,9.77-19,0-33.09-7.87a53.37,53.37,0,0,1-21.6-22q-7.51-14.18-7.52-32.31t7.52-32.32a53.58,53.58,0,0,1,21.51-22q14-7.86,32.84-7.86,24,0,39.14,11.57t17.88,31.45Z"/><path class="cls-1" d="M286.29,376.46A60.68,60.68,0,0,1,263.39,354a65.95,65.95,0,0,1,0-64.63A60.06,60.06,0,0,1,286.29,267a66.38,66.38,0,0,1,63.33,0,59.69,59.69,0,0,1,22.73,22.37,66.5,66.5,0,0,1,0,64.63,60.16,60.16,0,0,1-22.81,22.47,65.64,65.64,0,0,1-63.25,0Zm49.33-35q6.22-7.35,6.23-19.79,0-12.62-6.23-20T318,294.38q-11.58,0-17.8,7.34t-6.22,20q0,12.44,6.22,19.79t17.8,7.34Q329.4,348.81,335.62,341.47Z"/></svg>